<svg width="254" height="304" viewBox="0 0 254 304" fill="none" style="opacity:80%" xmlns="http://www.w3.org/2000/svg">
<g clip-path="url(#clip0_292_24)">
<line x1="138" y1="130" x2="210" y2="130" stroke="white" stroke-width="20"/>
<line x1="44" y1="130" x2="116" y2="130" stroke="white" stroke-width="20"/>
<line x1="138" y1="215" x2="210" y2="215" stroke="white" stroke-width="20"/>
<line x1="44" y1="215" x2="116" y2="215" stroke="white" stroke-width="20"/>
<path d="M85 0H169H85ZM179 37C179 48.0457 170.046 57 159 57H95C83.9543 57 75 48.0457 75 37H95H159H179ZM95 57C83.9543 57 75 48.0457 75 37V20C75 8.95431 83.9543 0 95 0C95 0 95 4.47715 95 10V37V57ZM159 0C170.046 0 179 8.95431 179 20V37C179 48.0457 170.046 57 159 57V37V10C159 4.47715 159 0 159 0Z" fill="white"/>
<rect x="10" y="10" width="234" height="284" rx="30" stroke="white" stroke-width="20"/>
</g>
<defs>
<clipPath id="clip0_292_24">
<rect width="254" height="304" rx="20" fill="white"/>
</clipPath>
</defs>
</svg>

